<?xml version="1.0" encoding="utf-8"?>
<!-- Generator: Adobe Illustrator 19.0.0, SVG Export Plug-In . SVG Version: 6.00 Build 0)  -->
<svg version="1.1" id="Layer_1" xmlns="http://www.w3.org/2000/svg" xmlns:xlink="http://www.w3.org/1999/xlink" x="0px" y="0px"
	 viewBox="0 0 500 500" style="enable-background:new 0 0 500 500;" xml:space="preserve">
<style type="text/css">
	.st0{fill:#0044AA;}
	.st1{fill:#FFFFFF;}
</style>
<g id="XMLID_1_">
	<circle id="XMLID_3_" class="st0" cx="250" cy="250" r="182.5"/>
	<path id="XMLID_4_" class="st1" d="M261.9,123.2c-16.5,1-35.9,4.1-51.7,8.2c-44.3,11.5-77,30.7-83.3,48.8
		c-1.1,3.1-1.2,9.2-0.2,12.2c0.8,2.5,3.9,6.1,7.1,8.3c5.9,4.2,16.3,6.9,31.5,8.2c6,0.5,26.7,0.5,34.4,0c9.6-0.6,8.8-0.8,10.6,2.2
		c2,3.4,9,10.8,12.6,13.2c6.4,4.3,13,6.4,21.2,6.7c11.1,0.4,19.7-2.3,28.1-8.8c7.4-5.8,13.1-14.7,15.4-24.2c1.1-4.3,1.4-14.8,0.6-19
		c-0.3-1.8-0.4-2.9-0.2-3.1c0.8-0.5,11.9,0.9,17.6,2.2c6.8,1.5,12.8,4.2,15.4,6.8c1.7,1.8,3.3,5.5,2.9,7.3
		c-1.5,8.4-12,17.7-31.5,27.7c-27.7,14.2-69.5,25.8-101.1,28.3c-4.8,0.4-4.6,1,0.6,2.2c4.5,1.1,9.4,2,16.1,2.7
		c6,0.7,30.9,0.7,38.7,0c36.4-3.2,69.2-11.7,92.6-24c20.7-10.9,30.5-22.9,29.7-36.4c-0.3-5.4-2.4-9.2-7.1-12.9
		c-5.8-4.7-14.9-7.6-28.3-9.2c-7.7-0.9-25.8-1.2-36.4-0.6c-4.8,0.3-9.2,0.5-9.8,0.5c-1,0-1.2-0.2-2.2-2.1c-2.7-5.4-4.7-8.2-8.7-12.4
		c-7.7-8-15.7-11.8-26.3-12.7c-14.4-1.1-26.7,4-36,14.8c-9.1,10.7-12.5,26.5-8.9,41c0.4,1.6,0.7,3.1,0.6,3.1
		c-0.2,0.2-10.4-1.2-13.9-1.9c-9.1-1.8-17.1-5.1-20.4-8.4c-2.4-2.5-3.4-5.5-2.7-8.2c4.2-16.5,48.5-40.8,94.7-52
		c12.7-3.1,27.3-5.4,37.5-5.9c3.6-0.2,5-0.4,5-0.7c0-0.5-3.2-1-11-1.8C289.3,123,268.6,122.8,261.9,123.2z"/>
	<path id="XMLID_5_" class="st1" d="M151.7,264.2c-2.2,0.6-4.9,2.2-6.4,3.8c-1.9,2-3.6,5.9-4.1,9c-0.2,1.4-0.4,12.9-0.4,25.9
		c0,25.8,0.1,27.1,2.3,30.6c1.6,2.6,4.6,5.2,6.9,6.1c2.8,1,8,0.9,10.8-0.2c4.5-1.8,7.8-6.3,8.6-12c0.2-1.5,0.3-4.7,0.3-7l-0.1-4.3
		l-4.6-0.1l-4.6-0.1v5.8c0,6.4-0.4,8-2.3,9c-2.5,1.4-6,0.2-7-2.3c-0.7-1.8-0.8-51.1,0-52.7c0.6-1.3,2.8-2.7,4.2-2.7
		c1.5,0,3.4,1.3,4.3,2.8c0.5,1,0.7,2.5,0.9,7l0.2,5.7l3.8,0.1c2.1,0.1,4.2,0,4.7-0.1l0.9-0.2l-0.2-6.1c-0.3-8.4-1.1-11.2-4.6-14.6
		c-2.3-2.2-4.5-3.1-8.6-3.3C154.7,263.8,152.5,264,151.7,264.2z"/>
	<path id="XMLID_6_" class="st1" d="M277.2,264.2c-2.4,0.5-4.9,1.9-6.5,3.5c-1.8,1.8-3.7,5.8-4.2,8.7c-0.3,1.4-0.4,11.2-0.3,27.4
		l0.1,25.2l0.9,2.3c1,2.7,4.3,6.5,6.5,7.7c2,1.1,6.1,1.6,9,1.2c3.4-0.5,6-1.7,7.8-3.7c3.4-3.8,4.3-6.6,4.3-14.6v-6h-4.5h-4.5v5.5
		c0,6.1-0.3,7.5-2.1,8.9c-2.1,1.7-5.9,0.7-7.2-1.8c-0.7-1.3-0.7-2.9-0.8-25.9c-0.1-16.1,0-24.9,0.3-25.8c0.9-3,3.9-4.6,6.5-3.4
		c2.4,1.1,2.7,2,2.9,8.9l0.2,6.1h4.5h4.5l0.3-3.3c0.4-4-0.2-9.5-1.2-12.5c-1-2.9-3.7-6-6.2-7.2c-1.6-0.8-2.7-1.1-5.4-1.2
		C280.4,263.9,278.2,264,277.2,264.2z"/>
	<path id="XMLID_9_" class="st1" d="M307.9,264.9c-4.1,1.5-6.5,4-8.2,8.6c-0.8,2.2-0.8,2.6-0.8,28.5c0,26,0,26.3,0.8,29
		c1.1,3.6,4,7.1,6.9,8.4c4,1.8,10.4,1.3,14.2-0.9c2.4-1.5,4.5-4.1,5.4-7c0.8-2.5,0.8-3.1,0.8-28.9c0-25.2,0-26.5-0.7-28.8
		c-1.2-4.2-4-7.3-7.4-8.6C316.5,264.1,310.3,264,307.9,264.9z M314.9,273.6c2.9,1.3,2.8,0.5,3.1,28c0.2,15.6,0.2,24.8-0.1,25.7
		c-1.2,5-7.2,5.9-9.4,1.5c-0.7-1.5-0.8-2.3-0.8-26.9c0-24.7,0-25.3,0.8-26.6c0.8-1.3,2.7-2.5,4-2.5
		C312.9,272.8,314,273.1,314.9,273.6z"/>
	<path id="XMLID_12_" class="st1" d="M204.6,265.2c-0.3,0.3-0.3,54.1,0,65.2l0.2,8.5h4.5c2.5,0,4.5,0,4.5-0.1c0,0,0.2-7.6,0.3-16.7
		l0.2-16.6l1.7-0.1c2.4-0.2,3.4,0.2,4.2,1.6c1.5,2.4,1.6,3.8,1.9,16.7c0.2,7,0.5,13.2,0.6,13.9l0.3,1.2l4.8,0.1
		c4.8,0.1,4.8,0.1,4.8-0.8c0-0.5-0.2-1.5-0.4-2.3c-0.3-0.8-0.5-6.6-0.7-14.3c-0.2-10.8-0.4-13.2-0.9-14.9c-0.7-2.1-3-4.9-4-4.9
		c-0.3,0,0.1-0.4,0.8-0.8c1.7-1,2.8-2.5,3.4-4.9c0.5-2.1,0.6-18.5,0.1-23c-0.4-4.2-2.9-7-6.8-7.7C221.6,264.9,205,264.8,204.6,265.2
		z M220.4,275c1.2,0.8,1.4,2.3,1.4,10.4c0,10.6,0,10.6-3.9,10.7c-1.7,0.1-2.9-0.1-3.3-0.4c-0.4-0.4-0.5-2.3-0.5-10.5
		c0-5.5,0.1-10.2,0.3-10.3C214.7,274.7,219.9,274.7,220.4,275z"/>
	<path id="XMLID_15_" class="st1" d="M180.4,265.8c-0.1,0.3-2.3,16.4-4.9,35.8c-2.6,19.4-4.9,35.7-5,36.3l-0.2,1.1h4.6
		c3.4,0,4.6-0.1,4.6-0.5c0-1.2,1.5-12.5,1.7-12.8c0.3-0.5,8.7-0.5,9.1,0.1c0.2,0.3,0.7,2.9,1,5.8c0.3,2.9,0.7,5.8,0.8,6.3l0.2,1.1
		h4.5c2.5,0,4.5-0.1,4.5-0.2c0-0.1-1.5-11.8-3.4-26c-1.9-14.1-4-30.4-4.8-36.1c-0.7-5.7-1.4-10.6-1.5-10.9c-0.1-0.4-1.6-0.5-5.7-0.5
		S180.4,265.5,180.4,265.8z M187.8,300.1c0.9,8.1,1.7,14.9,1.5,15c-0.3,0.5-6.4,0.4-6.8-0.2c-0.2-0.3,0.2-5.3,1.2-14.6
		c0.9-7.8,1.6-14.5,1.6-14.8c0-0.4,0.2-0.6,0.3-0.5C185.9,285.2,186.8,292,187.8,300.1z"/>
	<path id="XMLID_18_" class="st1" d="M238.4,301.9c-2.8,20.1-5,36.6-5,36.8c0,0.2,2,0.3,4.5,0.3h4.5l0.7-6c0.4-3.3,0.8-6.3,1-6.9
		c0.3-0.8,0.5-0.9,4.6-0.9c3.1,0,4.4,0.2,4.6,0.5c0.2,0.3,0.6,3.3,1.1,6.8l0.8,6.3l4.5,0.1l4.4,0.1v-1.4c0-1.3-0.3-4-2.5-19.8
		c-0.3-2.3-1.9-14.6-3.6-27.4c-1.7-12.8-3.1-23.7-3.2-24.2c-0.2-0.9-0.3-0.9-5.7-0.9h-5.6L238.4,301.9z M250.5,298.2
		c0.8,6.8,1.5,13.4,1.7,14.6c0.2,1.3,0.2,2.3,0.1,2.5c-0.3,0.4-6.8,0.2-7-0.1c-0.1-0.2,0.2-4,0.7-8.5c0.5-4.5,1.2-10.7,1.5-13.9
		c0.7-6.7,0.9-7.7,1.3-7.2C249,285.7,249.8,291.5,250.5,298.2z"/>
	<path id="XMLID_19_" class="st1" d="M331.6,302.1V339h11.9h11.9v-4.7v-4.7h-6.9c-4.9,0-7.1-0.2-7.4-0.5c-0.3-0.4-0.5-8-0.5-32.1
		v-31.6h-4.5h-4.5V302.1z"/>
	<path id="XMLID_20_" class="st1" d="M224.3,354.7c-10.1,0.1-13,0.2-13.2,0.4c-0.6,0.6-0.4,5.3,0.3,6.2c0.2,0.3,0.4,0.3,3,0.5
		c2.8,0.1,34.4,0.2,61.2,0.1l22.9-0.1l0.1-0.4c0-0.2,0.1-1.3,0.1-2.3c0.1-2.2-0.1-3.4-0.5-3.7c-0.5-0.5-2.7-0.6-12.9-0.7
		C275.7,354.5,237.3,354.6,224.3,354.7z"/>
	<path id="XMLID_21_" class="st1" d="M221.2,368.4c-1,0.1-1.4,0.2-1.5,0.5c-0.2,0.7-0.3,5.1-0.3,12.5c0,10.1,0.1,12.1,0.7,12.8
		c0.3,0.3,1,0.5,2.9,0.6c1.2,0.1,7.6-0.1,7.7-0.2c0,0,0.1-2.1,0.2-4.5c0.1-2.5,0.2-4.5,0.2-4.6h9.7c0.1,0.1,0.1,0.8,0.1,2.5
		c0,2.5,0.1,4.5,0.3,5.4c0.2,0.8,0.6,1.1,1.5,1.3c0.9,0.2,4.9,0.2,7.8,0l1.8-0.1l0.1-1.4c0-0.8,0.1-5.5,0.1-10.6
		c0.1-9.1,0-11.7-0.3-13c-0.2-0.9-0.7-1.1-3.2-1.2c-1.5,0-7.6,0.1-7.7,0.2c0,0-0.1,2.1-0.2,4.5c-0.1,2.5-0.2,4.5-0.2,4.6l-9.8,0
		c-0.1-0.1-0.1-0.8-0.1-2.8c0-3.6-0.2-5.4-0.7-5.9c-0.2-0.2-0.4-0.3-1.1-0.4C227.3,368.3,223.2,368.2,221.2,368.4z"/>
	<path id="XMLID_24_" class="st1" d="M261,368.9c-0.8,0-1.5,0.1-1.5,0.2c-0.2,0.2-0.3,3-0.4,10.9c-0.1,11.1,0.1,14.1,0.7,14.7
		c0.3,0.3,0.9,0.4,3.5,0.5c6.6,0.3,20.6-0.2,23.3-0.9c0.4-0.1,1.3-0.4,1.8-0.7c1.8-0.9,2.9-2,3.2-3.2c0.4-1.9,0.4-11.9,0-16.1
		c-0.2-1.6-0.3-2-1-2.7c-1.9-1.8-3.3-2.2-8.3-2.5C277.2,368.8,264.8,368.7,261,368.9z M276.5,375.9c2.8,0.1,3.7,0.2,3.8,0.3
		c0.2,0.2,0.4,7.1,0.3,9c-0.1,1.7-0.2,2.2-0.6,2.5c-0.5,0.5-2.2,0.7-6.3,0.7c-2,0-2.8,0-2.9-0.1c-0.1-0.1-0.1-1.6-0.1-6.2
		c0-3.4,0-6.2,0.1-6.2C270.9,375.7,272.4,375.7,276.5,375.9z"/>
</g>
</svg>
