<?xml version="1.0" encoding="UTF-8" standalone="no"?>
<svg
   xmlns:dc="http://purl.org/dc/elements/1.1/"
   xmlns:cc="http://creativecommons.org/ns#"
   xmlns:rdf="http://www.w3.org/1999/02/22-rdf-syntax-ns#"
   xmlns:svg="http://www.w3.org/2000/svg"
   xmlns="http://www.w3.org/2000/svg"
   xmlns:sodipodi="http://sodipodi.sourceforge.net/DTD/sodipodi-0.dtd"
   xmlns:inkscape="http://www.inkscape.org/namespaces/inkscape"
   width="100"
   height="40"
   viewBox="0 0 26.458333 10.583333"
   version="1.1"
   id="svg8"
   inkscape:version="1.0.1 (3bc2e813f5, 2020-09-07)"
   sodipodi:docname="wwwwwwwwwwwwwwwwwww.svg">
  <title
     id="title22">Nuestra Tele Internacional logo </title>
  <defs
     id="defs2" />
  <sodipodi:namedview
     id="base"
     pagecolor="#ffffff"
     bordercolor="#666666"
     borderopacity="1.0"
     inkscape:pageopacity="0.0"
     inkscape:pageshadow="2"
     inkscape:zoom="1"
     inkscape:cx="41.232874"
     inkscape:cy="25.141907"
     inkscape:document-units="px"
     inkscape:current-layer="layer1"
     inkscape:document-rotation="0"
     showgrid="false"
     units="px"
     inkscape:showpageshadow="false"
     inkscape:window-width="1366"
     inkscape:window-height="745"
     inkscape:window-x="-8"
     inkscape:window-y="-8"
     inkscape:window-maximized="1" />
  <metadata
     id="metadata5">
    <rdf:RDF>
      <cc:Work
         rdf:about="">
        <dc:format>image/svg+xml</dc:format>
        <dc:type
           rdf:resource="http://purl.org/dc/dcmitype/StillImage" />
        <dc:title>Nuestra Tele Internacional logo </dc:title>
        <dc:date>20 nov 2020</dc:date>
        <cc:license
           rdf:resource="http://scripts.sil.org/OFL" />
      </cc:Work>
      <cc:License
         rdf:about="http://scripts.sil.org/OFL">
        <cc:permits
           rdf:resource="http://scripts.sil.org/pub/OFL/Reproduction" />
        <cc:permits
           rdf:resource="http://scripts.sil.org/pub/OFL/Distribution" />
        <cc:permits
           rdf:resource="http://scripts.sil.org/pub/OFL/Embedding" />
        <cc:permits
           rdf:resource="http://scripts.sil.org/pub/OFL/DerivativeWorks" />
        <cc:requires
           rdf:resource="http://scripts.sil.org/pub/OFL/Notice" />
        <cc:requires
           rdf:resource="http://scripts.sil.org/pub/OFL/Attribution" />
        <cc:requires
           rdf:resource="http://scripts.sil.org/pub/OFL/ShareAlike" />
        <cc:requires
           rdf:resource="http://scripts.sil.org/pub/OFL/DerivativeRenaming" />
        <cc:requires
           rdf:resource="http://scripts.sil.org/pub/OFL/BundlingWhenSelling" />
      </cc:License>
    </rdf:RDF>
  </metadata>
  <g
     inkscape:label="Capa 1"
     inkscape:groupmode="layer"
     id="layer1">
    <g
       id="g24"
       transform="matrix(0.27485501,0,0,0.27478225,10.17484,3.1091991)">
      <rect
         style="fill:#386ab2;fill-opacity:1;stroke-width:0"
         id="rect201"
         width="95.778259"
         height="37.989361"
         x="-36.77663"
         y="-26.932178"
         transform="scale(1,-1)" />
      <g
         transform="matrix(0.06488793,0,0,0.0650519,-34.430596,-2.3940647)"
         id="g8"
         style="fill:#ffffff;fill-opacity:1">
        <path
           id="path4-0"
           style="fill:#ffffff;fill-opacity:1;stroke-width:0.245555"
           d="m 82.337891,222.5625 c -2.609387,-0.008 -5.21997,0.1784 -7.798829,0.55273 10.234104,-0.0196 20.592705,2.82229 29.003908,8.76758 6.31286,4.42311 11.45535,10.51823 14.69726,17.52539 -0.005,-6.53756 -0.003,-13.07377 0,-19.61132 5.50845,0.0122 11.01742,-5.5e-4 16.52539,0.002 0.0174,20.7191 -0.0187,41.44108 0.0137,62.16015 -4.27218,0.0834 -8.55009,-0.007 -12.82227,0.0449 -3.47759,0.0467 -6.93742,-0.62271 -10.20898,-1.78321 -3.77213,-1.35225 -7.38812,-3.16539 -10.71094,-5.41015 -1.761576,-1.24077 -3.515929,-2.61472 -4.740235,-4.41211 0.06179,-0.0413 0.126026,-0.0792 0.1875,-0.1211 2.835737,-1.9511 5.364875,-4.3735 7.353515,-7.19336 0.22012,-0.208 0.14202,-0.49074 0.10156,-0.75195 -2.18853,-1.01824 -4.169003,-2.45077 -6.339841,-3.50195 -0.677026,0.85153 -1.214621,1.81131 -1.955078,2.60937 -3.750324,4.35773 -9.139916,7.03742 -14.707031,8.16993 -5.077101,1.02862 -10.401748,0.85403 -15.382812,-0.58985 -4.740982,-1.38333 -9.254292,-3.93351 -12.451172,-7.76172 -2.479154,-2.93666 -4.076508,-6.71037 -4.023438,-10.59179 -0.0607,-4.30705 1.885583,-8.47735 4.839844,-11.54297 4.12435,-4.35771 9.898903,-6.87123 15.769531,-7.74024 5.188286,-0.76007 10.570771,-0.27993 15.513672,1.4961 4.902714,1.75322 9.395437,4.91878 12.246094,9.33984 2.186,-1.34533 4.437031,-2.58184 6.623051,-3.92969 -1.02605,-1.56574 -2.27757,-2.9677 -3.60157,-4.28515 -5.382877,-5.19127 -12.559857,-8.23638 -19.888669,-9.33594 -7.719713,-1.12985 -15.809112,-0.20936 -22.945312,3.01758 0,0 -0.002,0 -0.002,0 -1.916361,-2.53463 -4.460999,-4.53254 -7.066407,-6.31446 -3.81602,-2.52995 -7.906692,-4.68843 -12.25,-6.15625 -3.538435,-1.19399 -7.276461,-1.68671 -11.003906,-1.70703 -0.248487,-0.003 -0.497782,-3.3e-4 -0.746094,0.002 -6.305265,0.007 -12.61075,-0.008 -18.9160152,0.01 -0.00944,24.93076 -0.00391,49.8622 -0.00391,74.79297 9.6994912,0.009 19.3981922,0.005 29.0976562,0.002 -0.0027,-3.04357 -0.0054,-6.0873 0,-9.13086 5.515582,4.45974 12.122096,7.51574 19.052734,8.95899 5.905527,1.22932 12.02532,1.43838 18.001953,0.61719 -0.362977,-0.0615 -0.724438,-0.0947 -1.089843,-0.0996 -12.183812,-0.20418 -24.460707,-4.77467 -33.181641,-13.44141 -3.752267,-3.63389 -6.74553,-7.9969 -9.041016,-12.68555 -0.09807,6.48592 -0.0028,12.97231 -0.04492,19.46094 -5.491044,-0.009 -10.981585,0.0105 -16.472656,-0.01 0.0054,-20.72645 0.0067,-41.45324 0,-62.17969 4.443849,0.0122 8.892088,0.0405 13.335938,-0.004 6.523548,0.0566 12.731795,2.61488 18.289062,5.86524 2.33597,1.43344 4.700441,3.01228 6.416016,5.18164 -0.05221,0.0351 -0.106145,0.0681 -0.158203,0.10351 -2.100083,1.40865 -3.954075,3.15922 -5.609375,5.06445 -3.393997,3.97769 -5.603389,9.11402 -5.535157,14.39649 -0.09605,4.15226 1.226219,8.27358 3.4375,11.75977 3.487511,5.51555 9.023926,9.47845 15.023438,11.8496 10.02413,3.90433 21.594051,3.75213 31.476562,-0.51953 1.652104,2.44577 3.957523,4.37331 6.3125,6.11524 3.092805,2.20025 6.416765,4.07025 9.884765,5.60937 4.28715,1.93988 8.95098,2.97214 13.65234,3.08008 6.84726,0.0294 13.69768,-10e-4 20.54493,0.0137 0.005,-24.93838 0.001,-49.8729 0.004,-74.80859 -9.69434,0.005 -19.38917,-0.008 -29.08398,0.004 0,3.03397 0.006,6.06616 -0.002,9.09766 -4.90245,-3.93629 -10.64154,-6.80674 -16.718745,-8.39258 -4.205789,-1.09564 -8.55337,-1.64287 -12.902343,-1.65625 z m 244.783199,13.68359 v 26.51368 h 2.66211 l 0.0117,-26.4961 z m -41.91797,0.56055 v 2.63867 l 9.16602,0.006 v 23.45117 h 2.63867 l 0.01,-23.44922 8.29883,0.004 0.0137,-2.65039 z m -126.03906,0.46875 0.18946,25.54492 5.39648,0.0703 0.0137,-15.92578 12.89063,15.91016 4.4707,0.0312 0.0918,-25.63086 -4.61133,0.0527 0.0234,16.84766 -12.85157,-16.88476 z M 242.3457,237.5 v 5.10156 l -2.25781,0.006 v 4.83399 l 2.25781,0.01 v 9.51367 c 0,1.30683 0.17313,2.67035 0.84571,3.79688 0.56437,0.99696 1.54305,1.69016 2.61523,1.92383 2.10589,0.47879 4.40836,0.24782 6.2832,-0.92188 v -4.54492 c -0.88204,0.49533 -1.88551,0.7575 -2.88672,0.69531 -0.50299,-0.0285 -1.02513,-0.28522 -1.25976,-0.77539 -0.32009,-0.64137 -0.21006,-1.39122 -0.23047,-2.08594 v -7.60156 h 4.44727 v -4.84179 l -4.44727,-0.008 V 237.5 Z m -28.57226,4.46875 c -0.88792,0.0254 -1.77213,0.16859 -2.6211,0.44727 -1.80387,0.61094 -3.41501,1.83382 -4.52929,3.45312 -1.42119,2.04221 -2.07135,4.62479 -1.94141,7.14453 0.0721,2.37624 0.92069,4.73261 2.44531,6.49414 1.32733,1.55962 3.16146,2.58936 5.09766,3.00977 1.58968,0.3378 3.25264,0.32583 4.83984,-0.0254 2.05535,-0.46105 3.90662,-1.73672 5.22071,-3.45508 l -3.0625,-2.86719 c -0.58001,0.51949 -1.17704,1.03128 -1.85938,1.39453 -1.03129,0.57151 -2.22968,0.72961 -3.3789,0.61914 -1.03011,-0.10048 -2.0489,-0.54463 -2.7793,-1.33203 -0.64623,-0.68961 -1.01764,-1.61481 -1.20899,-2.55078 h 13.17383 c 0.23697,-2.67087 -0.12489,-5.48197 -1.39453,-7.83789 -1.13115,-2.10951 -3.11,-3.69891 -5.35547,-4.22851 -0.86521,-0.19812 -1.75853,-0.29004 -2.64648,-0.26563 z m 18.51758,0.28516 c -1.25584,-0.0124 -2.51469,0.20848 -3.66407,0.75586 -1.71236,0.81029 -3.03348,2.54204 -3.29101,4.51953 -0.16246,1.30429 -0.0928,2.72739 0.59179,3.86914 0.62456,1.11255 1.65073,1.91348 2.75782,2.43164 1.4537,0.66802 3.00224,1.04312 4.49804,1.5918 0.52346,0.20445 1.08356,0.43263 1.44336,0.91015 0.40074,0.56647 0.20463,1.45503 -0.36328,1.81445 -0.63418,0.41654 -1.42101,0.40869 -2.14062,0.37696 -2.01684,-0.16515 -3.89587,-1.12821 -5.51563,-2.36524 l -2.29297,3.72852 c 2.21656,1.84793 4.99604,2.92273 7.82032,3.00781 2.07457,0.0447 4.30764,-0.41598 5.88281,-1.9375 1.432,-1.38943 1.85384,-3.59915 1.57226,-5.56641 -0.21172,-1.37417 -1.10602,-2.53092 -2.17578,-3.29296 -1.54033,-1.10745 -3.38376,-1.56378 -5.10937,-2.23438 -0.66068,-0.27418 -1.3439,-0.54928 -1.87696,-1.05859 -0.4465,-0.39752 -0.42389,-1.18267 -0.0312,-1.60938 0.28141,-0.33279 0.69899,-0.48444 1.10938,-0.53906 0.7954,-0.11316 1.60498,0.0311 2.36914,0.26563 1.16486,0.36579 2.26376,0.92219 3.32031,1.55468 l 2.04688,-3.91406 c -1.42825,-0.99188 -3.0363,-1.6792 -4.70899,-2.04883 -0.73224,-0.15613 -1.48696,-0.2517 -2.24023,-0.25976 z m 42.95703,0.0254 c -0.54412,-0.006 -1.08338,0.0152 -1.61914,0.0488 -2.0096,0.10682 -3.96426,0.72584 -5.80664,1.54883 l 1.34375,4.32032 c 1.98675,-0.81532 4.13715,-1.27377 6.26953,-1.00196 0.90011,0.12457 1.82909,0.51671 2.38867,1.30664 0.53791,0.73665 0.6559,1.6999 0.62695,2.60547 -1.27794,-0.4585 -2.6123,-0.77296 -3.96484,-0.80469 -1.90734,-0.0685 -3.90395,0.14946 -5.58985,1.16407 -1.27199,0.75186 -2.23773,2.07847 -2.54101,3.58984 -0.21294,1.07318 -0.21858,2.19888 0.0117,3.26953 0.3273,1.45162 1.2377,2.73398 2.45312,3.49219 1.59931,1.00076 3.55021,1.18146 5.36133,0.91602 1.63053,-0.23235 3.13209,-1.14932 4.23438,-2.42188 v 2.16211 h 5.1914 v -8.91602 c -0.0313,-1.94179 0.14216,-3.92598 -0.36914,-5.81836 -0.4669,-1.85297 -1.58711,-3.58421 -3.24414,-4.44531 -1.46931,-0.77916 -3.11382,-1.00678 -4.74609,-1.01562 z m -10.48047,0.22265 c -0.7263,0.0316 -1.44905,0.16615 -2.11328,0.48243 -1.52828,0.75693 -2.55089,2.31363 -3.20313,3.90624 v -4.01757 h -5.36133 v 19.97265 h 5.36133 v -7.39843 c 0.006,-1.3996 0.16689,-2.83346 0.75781,-4.10352 0.55594,-1.21925 1.61194,-2.15501 2.82618,-2.57031 0.78941,-0.28592 1.62985,-0.36119 2.45898,-0.35352 v -5.91797 c -0.24068,-0.01 -0.48445,-0.0105 -0.72656,0 z m -79.34375,0.0566 v 10.93164 c 0.0179,1.43765 -0.0843,2.90038 0.22265,4.31641 0.31289,1.59011 1.1364,3.10899 2.4336,4.02344 1.21901,0.86994 2.743,1.12975 4.18945,1.05859 1.21177,-0.0482 2.39401,-0.51948 3.35547,-1.29297 0.68234,-0.53467 1.24798,-1.22016 1.77148,-1.91992 v 2.85352 h 5.36133 v -19.97071 h -5.36133 v 11.17969 c -0.006,1.06307 -0.21624,2.21524 -0.94531,3.00391 -0.60529,0.68077 -1.50616,0.98417 -2.375,0.97656 -0.87004,0.0222 -1.78717,-0.26058 -2.38281,-0.95898 -0.71,-0.80901 -0.88925,-1.96434 -0.89648,-3.02735 v -11.17383 z m 130.17383,0.67579 c -0.90178,0.006 -1.79907,0.15057 -2.65625,0.43359 -1.35058,0.42759 -2.48787,1.3724 -3.45508,2.42187 -1.21611,1.37412 -1.94368,3.16939 -2.25977,5.00196 -0.35502,2.34556 -0.0986,4.84942 0.99024,6.95703 0.70302,1.37785 1.76138,2.54364 3.01172,3.38867 1.95681,1.31097 4.40648,1.58961 6.66406,1.22656 2.10071,-0.35436 4.24211,-1.36864 5.45703,-3.27929 l -1.5293,-1.5586 c -0.57795,0.36549 -1.02648,0.90229 -1.58203,1.29883 -1.90252,1.37285 -4.4634,1.74747 -6.61133,0.81445 -1.24203,-0.52905 -2.28726,-1.5257 -2.92773,-2.75976 -0.49304,-0.94786 -0.92282,-2.00854 -0.84375,-3.11133 h 14.08594 c 0.0695,-2.05312 -0.15439,-4.16402 -0.98243,-6.04492 -0.64524,-1.48439 -1.70887,-2.78026 -3.05468,-3.60547 -1.29822,-0.80149 -2.80369,-1.18832 -4.30664,-1.18359 z m 26.12109,0.006 c -1.78168,0.0278 -3.56481,0.60086 -4.92187,1.83594 -1.87775,1.498 -3.00018,3.85545 -3.33985,6.27539 -0.25375,1.95768 -0.0867,4.00481 0.63867,5.83985 0.8269,2.10636 2.42512,3.87245 4.39844,4.82031 2.03706,0.91937 4.36581,1.00226 6.50781,0.4707 1.79993,-0.45718 3.57096,-1.43765 4.61719,-3.0918 l -1.5293,-1.56445 c -0.67228,0.43118 -1.1862,1.08419 -1.86914,1.49805 -1.41423,0.91442 -3.13191,1.31029 -4.77734,1.0625 -1.74215,-0.24028 -3.3843,-1.30198 -4.30078,-2.88672 -0.58743,-1.02962 -1.0966,-2.19592 -1.01758,-3.42383 l 14.08203,-0.008 c 0.0883,-2.52147 -0.27734,-5.17586 -1.65625,-7.30078 -1.14765,-1.80158 -3.04238,-3.01849 -5.0664,-3.38281 -0.57797,-0.10638 -1.17173,-0.15412 -1.76563,-0.14454 z m 0.31641,2.35547 c 0.62012,0.0124 1.23921,0.1373 1.81836,0.39258 2.27529,0.94538 3.70939,3.51353 3.65039,6.04492 H 336.0957 c 0.006,-1.3605 0.55693,-2.64314 1.22461,-3.77929 0.96511,-1.69502 2.85451,-2.69445 4.71485,-2.65821 z m -26.59766,0.006 c 0.14631,-0.006 0.29137,-0.006 0.4375,0 0.70105,0.0309 1.39366,0.2043 2.0293,0.53711 2.09716,1.04449 3.38351,3.48703 3.33398,5.89453 h -11.40625 c -0.009,-0.99495 0.3083,-1.95448 0.71875,-2.83789 0.47066,-1.00367 1.0905,-1.97508 2.00586,-2.58593 0.84432,-0.61458 1.85775,-0.96425 2.88086,-1.00782 z m -101.50586,0.91211 c 0.99307,-0.0254 1.99734,0.30934 2.70508,1.0586 0.80745,0.84589 1.22996,2.0205 1.38281,3.19531 h -8.08789 c 0.24057,-1.51388 0.94175,-3.09212 2.28711,-3.82617 0.52663,-0.26626 1.11706,-0.41221 1.71289,-0.42774 z m 61.23438,7.16992 c 1.1505,0.006 2.30044,0.25636 3.35546,0.74219 -0.006,0.78746 0.0716,1.62142 -0.25781,2.35938 -0.4814,1.13033 -1.59409,1.82122 -2.71679,2.03711 -0.94106,0.16642 -1.95446,0.20049 -2.84376,-0.21094 -0.59086,-0.2707 -1.10213,-0.79443 -1.24414,-1.47266 -0.16489,-0.79631 -0.0618,-1.7104 0.46875,-2.33398 0.53069,-0.62489 1.32209,-0.91527 2.08985,-1.04102 0.37995,-0.0548 0.7649,-0.081 1.14844,-0.0801 z m 41.07617,15.01758 c -5.5e-4,5.61245 -9.6e-4,11.22349 -0.002,16.83594 h 2.08789 c 0,-5.61245 5.5e-4,-11.22349 0,-16.83594 z m -41.96094,0.88867 c -5.6e-4,0.78085 -5.6e-4,1.5629 0,2.34375 0.78471,-5.5e-4 1.57076,-8e-4 2.35547,-0.002 -5.5e-4,-0.78085 -5.5e-4,-1.56095 0,-2.3418 -0.78471,-5.5e-4 -1.57076,0 -2.35547,0 z m -79.76367,0.51758 c -5.6e-4,5.1559 0,10.31089 0,15.4668 h 2.2207 c 5.5e-4,-5.15591 5.5e-4,-10.3109 0,-15.4668 z m 20.32617,0.77735 c -0.69594,0.22005 -1.39252,0.43988 -2.08789,0.66211 5.5e-4,0.86865 0,1.73822 0,2.60742 -0.82169,0 -1.64317,-5.5e-4 -2.46484,0 v 1.67773 c 0.82167,5.5e-4 1.64315,5.5e-4 2.46484,0 0,2.11757 5.5e-4,4.2365 0,6.35352 -0.004,0.54763 0.0644,1.0979 0.22266,1.62304 0.25202,0.71006 0.87743,1.24723 1.57226,1.51172 1.11283,0.39728 2.35757,0.35154 3.46875,-0.0293 0.002,-0.58934 -0.001,-1.17824 0,-1.76758 -0.44282,0.27052 -0.96214,0.42958 -1.48437,0.39062 -0.55421,-0.0165 -1.09416,-0.31965 -1.38477,-0.79101 -0.23327,-0.35723 -0.29286,-0.7939 -0.30664,-1.21094 -0.001,-2.02648 5.5e-4,-4.0536 0,-6.08008 1.0439,0 2.08695,5.5e-4 3.13086,0 v -1.67773 c -1.04391,-5.5e-4 -2.08696,0 -3.13086,0 z m 53.75977,3.01757 c -0.74053,10e-4 -1.48054,0.12334 -2.17579,0.37891 -1.28764,0.46862 -2.41135,1.42502 -3.00195,2.66406 -0.63473,1.43659 -0.75871,3.10084 -0.29492,4.60547 0.29558,1.01516 0.90306,1.93432 1.71094,2.61914 0.82003,0.68427 1.81891,1.18414 2.89258,1.29883 1.1779,0.12347 2.41101,0.0637 3.51171,-0.4082 -0.0524,-0.61843 -0.10496,-1.23845 -0.15625,-1.85743 -1.05714,0.66837 -2.42035,0.83251 -3.60156,0.41602 -0.58124,-0.22004 -1.12363,-0.56837 -1.52344,-1.04687 -0.50789,-0.62665 -0.74759,-1.42296 -0.84961,-2.21094 -0.12738,-1.00144 0.0336,-2.04697 0.51172,-2.94141 0.25477,-0.48179 0.61292,-0.91609 1.07227,-1.2168 0.67499,-0.45161 1.50271,-0.67223 2.31445,-0.61132 0.67443,0.0483 1.34667,0.19749 1.96485,0.47461 0.0596,-0.57453 0.11927,-1.14954 0.17773,-1.72461 -0.58344,-0.21346 -1.19101,-0.36528 -1.8125,-0.40039 -0.24526,-0.0255 -0.49338,-0.0395 -0.74023,-0.0391 z m 15.82421,0 c -0.2703,5.5e-4 -0.54059,0.0163 -0.80859,0.0449 -0.54318,0.062 -1.07915,0.19626 -1.58594,0.40039 -0.88288,0.35503 -1.65271,0.9693 -2.2207,1.72656 -0.58621,0.7792 -0.92162,1.72129 -1.06445,2.67773 -0.16764,1.11942 -0.0334,2.27853 0.36914,3.33594 0.31929,0.8275 0.84526,1.57855 1.53125,2.14649 0.99152,0.86371 2.32385,1.26649 3.62695,1.28515 1.16246,0.0318 2.34973,-0.22893 3.3418,-0.8457 0.82332,-0.52679 1.50647,-1.27273 1.93164,-2.15235 0.88068,-1.84265 0.83976,-4.10767 -0.14844,-5.90039 -0.57682,-1.02009 -1.50412,-1.84445 -2.59766,-2.28125 -0.75273,-0.30496 -1.5641,-0.43842 -2.375,-0.4375 z m -59.83984,0.004 c -0.78913,-0.0143 -1.60101,0.0647 -2.32617,0.39453 -0.68656,0.31497 -1.33954,0.73279 -1.82813,1.31445 -0.73123,0.8467 -1.13884,1.93245 -1.26953,3.03321 -0.16268,1.42177 -0.0113,2.91603 0.6543,4.20117 0.46762,0.93394 1.28111,1.6793 2.22852,2.11719 0.73949,0.35668 1.55914,0.51334 2.37695,0.54297 0.9132,0.0433 1.83927,-0.003 2.72656,-0.23829 0.4759,-0.12127 0.92686,-0.31712 1.39063,-0.4746 0,-0.69196 8e-4,-1.38423 0.002,-2.07618 -1.13104,0.72872 -2.47946,1.22596 -3.84375,1.10742 -0.95567,-0.0686 -1.89375,-0.51061 -2.50586,-1.25195 -0.56801,-0.66123 -0.84488,-1.53496 -0.86914,-2.39648 2.6944,-5.5e-4 5.38762,-5.5e-4 8.08203,0 0.003,-0.53007 0.0101,-1.06307 -0.0606,-1.58985 -0.1318,-0.98827 -0.38671,-1.99197 -0.9707,-2.81836 -0.41635,-0.61074 -1.02141,-1.06805 -1.66992,-1.4121 -0.65072,-0.33419 -1.39368,-0.43557 -2.11719,-0.45313 z m 31.04297,0.0957 c -0.29093,0.0112 -0.58085,0.0382 -0.86719,0.0742 -0.95126,0.13773 -1.91214,0.37951 -2.73437,0.89258 0.0452,0.6036 0.0896,1.20695 0.13476,1.81055 0.58509,-0.40824 1.22354,-0.76487 1.92774,-0.91797 0.58068,-0.12735 1.1773,-0.22348 1.77343,-0.17188 0.45384,0.0417 0.93003,0.0729 1.33204,0.31055 0.39484,0.2321 0.76445,0.56296 0.92382,1.00195 0.14669,0.50044 0.12896,1.02716 0.12696,1.54297 -1.52146,-0.0823 -3.06857,-0.0774 -4.5586,0.27539 -0.85311,0.21346 -1.70859,0.62418 -2.23633,1.34961 -0.67608,0.8906 -0.85253,2.10866 -0.5371,3.16992 0.26966,0.79566 0.89163,1.46053 1.65429,1.81446 1.15364,0.54051 2.51086,0.59445 3.72461,0.22461 0.53822,-0.15309 1.05585,-0.39938 1.48047,-0.76758 0.26139,-0.21126 0.46777,-0.47689 0.68945,-0.72656 0.014,0.518 0.002,1.03809 0.006,1.55664 0.65017,5.5e-4 1.30045,-5.5e-4 1.95118,0 -0.10481,-0.79841 -0.0779,-1.60822 -0.0859,-2.41211 -0.003,-1.61054 0.007,-3.22204 -0.004,-4.83203 -10e-4,-0.71171 -0.0847,-1.43746 -0.37695,-2.09375 -0.3248,-0.77481 -0.98112,-1.39207 -1.75977,-1.70704 -0.81064,-0.33171 -1.6917,-0.42632 -2.56445,-0.39257 z m 53.20508,0.0215 c -0.29091,0.0112 -0.58085,0.0382 -0.86719,0.0742 -0.95126,0.13773 -1.91215,0.3795 -2.73437,0.89257 0.0452,0.60361 0.0896,1.20694 0.13476,1.81055 0.58509,-0.40826 1.22353,-0.76291 1.92774,-0.91601 0.58067,-0.1273 1.17731,-0.22541 1.77343,-0.17383 0.45384,0.0417 0.92807,0.0749 1.33008,0.3125 0.39484,0.23212 0.76446,0.56296 0.92383,1.00195 0.14669,0.50044 0.13111,1.02716 0.1289,1.54297 -1.52145,-0.0823 -3.06856,-0.0774 -4.55859,0.27539 -0.8531,0.21345 -1.71054,0.62224 -2.23828,1.34766 -0.67609,0.8906 -0.85059,2.11062 -0.53516,3.17187 0.26966,0.79566 0.8897,1.45856 1.65235,1.8125 1.15366,0.5405 2.51086,0.59445 3.72461,0.22461 0.53822,-0.1531 1.05585,-0.39742 1.48047,-0.76562 0.2614,-0.21126 0.46776,-0.4769 0.68945,-0.72657 0.0138,0.518 0.004,1.03613 0.008,1.55469 0.65016,5.5e-4 1.30045,-5.5e-4 1.95117,0 -0.10478,-0.79841 -0.0777,-1.60822 -0.0859,-2.41211 -0.003,-1.61054 0.005,-3.22205 -0.006,-4.83203 -10e-4,-0.71171 -0.0827,-1.43551 -0.375,-2.0918 -0.3248,-0.77481 -0.98113,-1.394 -1.75977,-1.70898 -0.81065,-0.33171 -1.69169,-0.42633 -2.56445,-0.39258 z m -72.16016,0.0312 c -0.39705,-0.007 -0.79105,0.0413 -1.16797,0.17578 -0.78692,0.27985 -1.45315,0.86418 -1.85351,1.5918 -0.0496,0.0911 -0.0954,0.18825 -0.16602,0.26562 -0.0154,-0.61842 -8.6e-4,-1.23846 -0.006,-1.85742 -0.65182,0 -1.30381,-5.5e-4 -1.95508,0 -5.5e-4,3.75608 5.5e-4,7.51149 0,11.26758 h 2.08789 v -4.82813 c -0.0154,-1.13368 0.12863,-2.31111 0.68946,-3.3164 0.30219,-0.49715 0.69215,-0.9741 1.22265,-1.24024 0.72627,-0.33528 1.58146,-0.30757 2.32813,-0.0508 -0.001,-0.61842 5.6e-4,-1.23705 0,-1.85547 -0.38354,-0.084 -0.78264,-0.14535 -1.17969,-0.15234 z m -31.26172,0.0391 c -0.2609,-9.9e-4 -0.52272,0.0166 -0.77929,0.0449 -1.0257,0.13389 -2.01774,0.62786 -2.68555,1.42188 -0.0987,0.11085 -0.16849,0.24576 -0.2832,0.34179 -0.006,-0.5438 3.2e-4,-1.08847 -0.002,-1.63281 h -2.08594 c -5.5e-4,3.75608 -9.5e-4,7.51344 -0.002,11.26953 h 2.08789 v -5.15625 c 0.002,-0.60196 0.0252,-1.20778 0.17188,-1.79492 0.14283,-0.57069 0.34638,-1.14028 0.70703,-1.61328 0.51505,-0.68921 1.3371,-1.15799 2.20508,-1.19531 0.51286,-0.0236 1.0627,0.0237 1.5,0.31836 0.22389,0.14981 0.46112,0.29845 0.61718,0.52343 0.26305,0.3682 0.40871,0.8032 0.49805,1.24219 0.1704,0.92077 0.13677,1.86122 0.14063,2.79297 v 4.88281 h 2.08789 c -0.001,-2.24981 0.001,-4.49878 -0.002,-6.74804 -0.003,-0.83737 -0.0942,-1.69253 -0.43554,-2.4668 -0.29392,-0.70457 -0.80474,-1.33291 -1.48633,-1.69727 -0.68739,-0.37945 -1.47122,-0.52822 -2.25391,-0.53125 z m 92.22852,0.041 c -1.07369,0.023 -2.14904,0.43231 -2.92383,1.17968 -0.21011,0.18328 -0.35052,0.42605 -0.54297,0.62305 -0.006,-0.5438 -0.002,-1.08652 -0.004,-1.63086 h -2.08594 c -0.001,3.75608 -9.6e-4,7.51094 -0.002,11.26758 h 2.0879 c 0.002,-1.81137 -0.003,-3.62082 0.004,-5.43164 0.003,-0.96413 0.18141,-1.94774 0.65234,-2.79883 0.47094,-0.83078 1.35051,-1.43997 2.31446,-1.51953 0.58399,-0.0477 1.21839,0.006 1.70312,0.36719 0.30771,0.18711 0.5671,0.45115 0.71875,0.77929 0.28069,0.55587 0.36941,1.18089 0.41407,1.79492 0.0485,0.67605 0.0293,1.35552 0.0332,2.03321 v 4.77539 h 2.08789 c -5.5e-4,-2.19549 0,-4.38905 0,-6.58399 -0.003,-0.66067 -0.0325,-1.32978 -0.20899,-1.9707 -0.22057,-0.81926 -0.65035,-1.61577 -1.3496,-2.125 -0.82828,-0.60745 -1.88984,-0.79487 -2.89844,-0.75976 z m -52.85547,0.004 c -1.17128,0.0362 -2.34426,0.5383 -3.11133,1.43164 -0.10919,0.11798 -0.18422,0.26488 -0.30664,0.36914 -0.006,-0.5438 3.2e-4,-1.08652 -0.002,-1.63086 -0.69594,0 -1.39195,-10e-4 -2.08789,0 5.6e-4,3.75608 5.6e-4,7.51149 0,11.26758 h 2.08789 v -4.44336 c 0.002,-0.59209 -0.013,-1.1855 0.0449,-1.77539 0.0744,-0.65793 0.25024,-1.31025 0.55078,-1.90234 0.418,-0.80499 1.20438,-1.42499 2.10547,-1.5918 0.44612,-0.0768 0.9104,-0.0729 1.35156,0.0352 0.30716,0.073 0.5719,0.25258 0.82227,0.4375 0.39649,0.28205 0.59847,0.7512 0.73633,1.20117 0.19798,0.70457 0.21803,1.44339 0.22851,2.16992 0.002,1.95678 -5.5e-4,3.91235 0,5.86914 h 2.08789 c -5.5e-4,-2.06708 0,-4.13214 0,-6.19922 0.001,-0.77481 0.004,-1.56385 -0.19726,-2.31836 -0.21782,-0.83408 -0.65301,-1.64465 -1.36328,-2.16211 -0.84208,-0.61678 -1.92266,-0.80061 -2.94727,-0.75781 z m 29.62695,0.0918 c -5.5e-4,3.75608 5.5e-4,7.51149 0,11.26758 h 2.08789 c 0,-3.75609 5.5e-4,-7.5115 0,-11.26758 -0.69593,0 -1.3925,-5.5e-4 -2.08789,0 z m -50.14648,1.35156 c 0.45774,-0.01 0.9205,0.0573 1.33203,0.25977 0.46764,0.26339 0.90331,0.61457 1.17187,1.08593 0.29999,0.51252 0.43697,1.11019 0.41602,1.70118 -1.95436,-5.5e-4 -3.90893,0.002 -5.86328,0 0.0877,-0.89828 0.45854,-1.80848 1.16992,-2.39453 0.37444,-0.31771 0.82481,-0.55933 1.31836,-0.61915 0.14958,-0.0181 0.3025,-0.0299 0.45508,-0.0332 z m 60.40625,0.0117 c 0.81304,0.0608 1.60635,0.4054 2.16015,1.00586 0.64796,0.6903 1.01108,1.61544 1.09766,2.54883 0.10146,1.05083 -0.0672,2.1541 -0.62695,3.06445 -0.26305,0.40441 -0.56544,0.79667 -0.97461,1.06445 -1.22037,0.8467 -3.02876,0.75216 -4.12891,-0.25586 -0.67553,-0.64751 -1.10457,-1.52898 -1.24023,-2.44921 -0.14117,-0.94602 -0.0456,-1.93472 0.31445,-2.82422 0.43785,-1.07167 1.43149,-1.92653 2.58789,-2.11914 0.2669,-0.0442 0.53953,-0.0555 0.81055,-0.0352 z m -27.73242,4.43359 c 0.43558,-0.002 0.87237,0.015 1.30664,0.0449 -0.0187,0.65683 0.0719,1.33692 -0.15039,1.9707 -0.20238,0.53392 -0.53175,1.03915 -1.01758,1.35742 -0.67333,0.44393 -1.51816,0.60576 -2.31446,0.50586 -0.54705,-0.0763 -1.1212,-0.28431 -1.45703,-0.74414 -0.38988,-0.47685 -0.39044,-1.16093 -0.1875,-1.7168 0.12463,-0.38466 0.44906,-0.66105 0.78711,-0.86133 0.52553,-0.30291 1.13324,-0.42383 1.73047,-0.49023 0.43343,-0.0436 0.86716,-0.0645 1.30274,-0.0664 z m 53.20507,0.0215 c 0.43558,-0.002 0.87237,0.015 1.30664,0.0449 -0.0187,0.65683 0.0699,1.33887 -0.15234,1.97266 -0.20238,0.53392 -0.53175,1.03916 -1.01758,1.35742 -0.67332,0.44393 -1.51815,0.60573 -2.31445,0.50586 -0.54704,-0.0763 -1.11925,-0.28626 -1.45508,-0.7461 -0.38989,-0.47685 -0.39239,-1.16092 -0.18945,-1.71679 0.12462,-0.38466 0.45102,-0.65909 0.78906,-0.85938 0.52553,-0.3029 1.1313,-0.42579 1.72852,-0.49219 0.43345,-0.0436 0.8691,-0.0645 1.30468,-0.0664 z"
           transform="matrix(4.0775431,0,0,4.0672651,-31.193633,-905.22085)" />
      </g>
    </g>
  </g>
</svg>
